<mxfile host="app.diagrams.net" modified="2023-05-30T07:42:05.089Z" agent="Mozilla/5.0 (Windows NT 10.0; Win64; x64) AppleWebKit/537.36 (KHTML, like Gecko) Chrome/113.0.0.0 Safari/537.36" etag="Kvo0kOFP8SX4PdHjU1kN" version="21.3.5" type="github">
  <diagram name="Page-1" id="k8oCKBVrUT4P6kEZb4gl">
    <mxGraphModel dx="1900" dy="577" grid="1" gridSize="10" guides="1" tooltips="1" connect="1" arrows="1" fold="1" page="1" pageScale="1" pageWidth="850" pageHeight="1100" math="0" shadow="0">
      <root>
        <mxCell id="0" />
        <mxCell id="1" parent="0" />
        <mxCell id="kMQozYYgAJRE7yRS7iRS-1" value="99acres.com" style="rounded=0;whiteSpace=wrap;html=1;" vertex="1" parent="1">
          <mxGeometry x="-40" y="80" width="120" height="60" as="geometry" />
        </mxCell>
        <mxCell id="kMQozYYgAJRE7yRS7iRS-2" value="makaan.com" style="rounded=0;whiteSpace=wrap;html=1;" vertex="1" parent="1">
          <mxGeometry x="-40" y="400" width="120" height="60" as="geometry" />
        </mxCell>
        <mxCell id="kMQozYYgAJRE7yRS7iRS-4" style="edgeStyle=orthogonalEdgeStyle;rounded=0;orthogonalLoop=1;jettySize=auto;html=1;exitX=0.5;exitY=0;exitDx=0;exitDy=0;entryX=1;entryY=0.5;entryDx=0;entryDy=0;" edge="1" parent="1" source="kMQozYYgAJRE7yRS7iRS-3" target="kMQozYYgAJRE7yRS7iRS-1">
          <mxGeometry relative="1" as="geometry">
            <mxPoint x="190" y="230" as="sourcePoint" />
            <mxPoint x="150" y="130" as="targetPoint" />
            <Array as="points">
              <mxPoint x="210" y="110" />
            </Array>
          </mxGeometry>
        </mxCell>
        <mxCell id="kMQozYYgAJRE7yRS7iRS-5" style="edgeStyle=orthogonalEdgeStyle;rounded=0;orthogonalLoop=1;jettySize=auto;html=1;exitX=0.5;exitY=1;exitDx=0;exitDy=0;entryX=1;entryY=0.5;entryDx=0;entryDy=0;" edge="1" parent="1" source="kMQozYYgAJRE7yRS7iRS-3" target="kMQozYYgAJRE7yRS7iRS-2">
          <mxGeometry relative="1" as="geometry">
            <mxPoint x="160" y="430" as="targetPoint" />
          </mxGeometry>
        </mxCell>
        <mxCell id="kMQozYYgAJRE7yRS7iRS-8" style="rounded=0;orthogonalLoop=1;jettySize=auto;html=1;exitX=1;exitY=0.5;exitDx=0;exitDy=0;entryX=0;entryY=0.5;entryDx=0;entryDy=0;entryPerimeter=0;startArrow=classic;startFill=1;" edge="1" parent="1" source="kMQozYYgAJRE7yRS7iRS-3" target="kMQozYYgAJRE7yRS7iRS-6">
          <mxGeometry relative="1" as="geometry" />
        </mxCell>
        <mxCell id="kMQozYYgAJRE7yRS7iRS-3" value="scrapper.py" style="rounded=0;whiteSpace=wrap;html=1;" vertex="1" parent="1">
          <mxGeometry x="150" y="240" width="120" height="60" as="geometry" />
        </mxCell>
        <mxCell id="kMQozYYgAJRE7yRS7iRS-6" value="Postgres" style="shape=cylinder3;whiteSpace=wrap;html=1;boundedLbl=1;backgroundOutline=1;size=15;" vertex="1" parent="1">
          <mxGeometry x="360" y="220" width="100" height="100" as="geometry" />
        </mxCell>
        <mxCell id="kMQozYYgAJRE7yRS7iRS-11" style="edgeStyle=orthogonalEdgeStyle;rounded=0;orthogonalLoop=1;jettySize=auto;html=1;exitX=0.5;exitY=0;exitDx=0;exitDy=0;entryX=0.5;entryY=1;entryDx=0;entryDy=0;entryPerimeter=0;startArrow=block;startFill=1;" edge="1" parent="1" source="kMQozYYgAJRE7yRS7iRS-9" target="kMQozYYgAJRE7yRS7iRS-6">
          <mxGeometry relative="1" as="geometry" />
        </mxCell>
        <mxCell id="kMQozYYgAJRE7yRS7iRS-13" style="edgeStyle=orthogonalEdgeStyle;rounded=0;orthogonalLoop=1;jettySize=auto;html=1;exitX=1;exitY=0.5;exitDx=0;exitDy=0;entryX=0;entryY=0.5;entryDx=0;entryDy=0;entryPerimeter=0;" edge="1" parent="1" source="kMQozYYgAJRE7yRS7iRS-9" target="kMQozYYgAJRE7yRS7iRS-12">
          <mxGeometry relative="1" as="geometry" />
        </mxCell>
        <mxCell id="kMQozYYgAJRE7yRS7iRS-9" value="prediction.py" style="rounded=0;whiteSpace=wrap;html=1;" vertex="1" parent="1">
          <mxGeometry x="350" y="360" width="120" height="60" as="geometry" />
        </mxCell>
        <mxCell id="kMQozYYgAJRE7yRS7iRS-12" value="Postgres" style="shape=cylinder3;whiteSpace=wrap;html=1;boundedLbl=1;backgroundOutline=1;size=15;" vertex="1" parent="1">
          <mxGeometry x="590" y="340" width="110" height="100" as="geometry" />
        </mxCell>
        <mxCell id="kMQozYYgAJRE7yRS7iRS-15" style="edgeStyle=orthogonalEdgeStyle;rounded=0;orthogonalLoop=1;jettySize=auto;html=1;exitX=0.5;exitY=1;exitDx=0;exitDy=0;entryX=0.5;entryY=0;entryDx=0;entryDy=0;entryPerimeter=0;startArrow=block;startFill=1;" edge="1" parent="1" source="kMQozYYgAJRE7yRS7iRS-14" target="kMQozYYgAJRE7yRS7iRS-12">
          <mxGeometry relative="1" as="geometry" />
        </mxCell>
        <mxCell id="kMQozYYgAJRE7yRS7iRS-14" value="Dashboard" style="rounded=1;whiteSpace=wrap;html=1;" vertex="1" parent="1">
          <mxGeometry x="585" y="110" width="120" height="60" as="geometry" />
        </mxCell>
        <mxCell id="kMQozYYgAJRE7yRS7iRS-16" value="Scrap the data on a monthly basis" style="text;html=1;strokeColor=none;fillColor=none;align=center;verticalAlign=middle;whiteSpace=wrap;rounded=0;" vertex="1" parent="1">
          <mxGeometry x="10" y="232.5" width="90" height="75" as="geometry" />
        </mxCell>
        <mxCell id="kMQozYYgAJRE7yRS7iRS-17" value="Monthly data is stored&amp;nbsp;" style="text;html=1;strokeColor=none;fillColor=none;align=center;verticalAlign=middle;whiteSpace=wrap;rounded=0;" vertex="1" parent="1">
          <mxGeometry x="365" y="150" width="90" height="60" as="geometry" />
        </mxCell>
      </root>
    </mxGraphModel>
  </diagram>
</mxfile>
